<svg xmlns="http://www.w3.org/2000/svg" version="1.1" xmlns:xlink="http://www.w3.org/1999/xlink" xmlns:svgjs="http://svgjs.dev/svgjs" width="1000" height="297" viewBox="0 0 1000 297"><g transform="matrix(1,0,0,1,-0.6060178481077401,-0.49362790748628527)"><svg viewBox="0 0 396 118" data-background-color="#ffffff" preserveAspectRatio="xMidYMid meet" height="297" width="1000" xmlns="http://www.w3.org/2000/svg" xmlns:xlink="http://www.w3.org/1999/xlink"><g id="tight-bounds" transform="matrix(1,0,0,1,0.23998312797903054,0.19612152553327178)"><svg viewBox="0 0 395.52 117.60775694893343" height="117.60775694893343" width="395.52"><g><svg viewBox="0 0 395.52 117.60775694893343" height="117.60775694893343" width="395.52"><g><svg viewBox="0 0 395.52 117.60775694893343" height="117.60775694893343" width="395.52"><g id="textblocktransform"><svg viewBox="0 0 395.52 117.60775694893343" height="117.60775694893343" width="395.52" id="textblock"><g><svg viewBox="0 0 395.52 117.60775694893343" height="117.60775694893343" width="395.52"><g transform="matrix(1,0,0,1,0,0)"><svg width="395.52" viewBox="1.850000023841858 -35.5 156.82998657226562 46" height="117.60775694893343" data-palette-color="#6936f5"><path d="M4.7-8.9Q4.85-7.2 5.98-5.65 7.1-4.1 9.08-3.13 11.05-2.15 13.6-2.15L13.6-2.15Q17.45-2.15 20.03-3.88 22.6-5.6 22.6-9.35L22.6-9.35Q22.6-11.55 21.35-13.03 20.1-14.5 18.25-15.38 16.4-16.25 13.2-17.4L13.2-17.4Q9.75-18.6 7.68-19.63 5.6-20.65 4.17-22.4 2.75-24.15 2.75-26.9L2.75-26.9Q2.75-29.1 4-31.08 5.25-33.05 7.78-34.27 10.3-35.5 14-35.5L14-35.5Q16.45-35.5 18.05-35.15 19.65-34.8 21.3-34L21.3-34 20.45-31.35Q17.6-32.8 14.1-32.8L14.1-32.8Q10.25-32.8 7.95-31.2 5.65-29.6 5.65-26.75L5.65-26.75Q5.65-24.95 6.8-23.73 7.95-22.5 9.63-21.75 11.3-21 14.3-19.95L14.3-19.95Q17.95-18.7 20.2-17.63 22.45-16.55 24.03-14.58 25.6-12.6 25.6-9.6L25.6-9.6Q25.6-5 22.68-2.23 19.75 0.55 13.65 0.55L13.65 0.55Q9.95 0.55 7.33-0.83 4.7-2.2 3.33-4.38 1.95-6.55 1.85-8.9L1.85-8.9 4.7-8.9ZM35.55 0.65Q32.75-0.15 31.5-1.9 30.25-3.65 30.25-6.6L30.25-6.6 30.25-35 33.05-35 33.05-25.05 39.05-25.05 37.85-22.4 33.05-22.4 33.05-6.6Q33.05-2.6 36.35-1.5L36.35-1.5 35.55 0.65ZM61.3 0Q55.9 0.55 53.5 0.55L53.5 0.55Q48.25 0.55 45.15-1.4 42.05-3.35 42.05-8.45L42.05-8.45 42.05-12.6Q42.05-17.55 45.5-19.25L45.5-19.25Q47.15-20.1 49.7-20.1L49.7-20.1Q52.05-20.1 54.45-19.33 56.84-18.55 58.5-17.3L58.5-17.3Q58.5-20.05 56.89-21.68 55.3-23.3 50.75-23.3L50.75-23.3 50.9-25.45Q55.7-25.45 57.97-23.93 60.25-22.4 60.77-20.3 61.3-18.2 61.3-14.9L61.3-14.9 61.3 0ZM58.5-15.15Q56.45-16.1 54.12-16.8 51.8-17.5 49.84-17.5L49.84-17.5Q44.8-17.5 44.8-12.45L44.8-12.45 44.8-8.1Q44.8-4.85 47.05-3.38 49.3-1.9 53.45-1.9L53.45-1.9Q55.59-1.9 58.5-2.3L58.5-2.3 58.5-15.15ZM66.99 0L66.99-27.45Q66.99-31.6 69.09-33.55 71.19-35.5 74.29-35.5L74.29-35.5Q75.24-35.5 76.14-35.35L76.14-35.35 75.69-32.9Q74.79-33 74.39-33L74.39-33Q69.79-33 69.79-27.45L69.79-27.45 69.79-25.05 75.49-25.05 74.29-22.4 69.79-22.4 69.79 0 66.99 0ZM81.69 0L81.69-27.45Q81.69-31.6 83.79-33.55 85.89-35.5 88.99-35.5L88.99-35.5Q89.94-35.5 90.84-35.35L90.84-35.35 90.39-32.9Q89.49-33 89.09-33L89.09-33Q84.49-33 84.49-27.45L84.49-27.45 84.49-25.05 90.19-25.05 88.99-22.4 84.49-22.4 84.49 0 81.69 0ZM96.39 0L96.39-35 99.19-35 99.19-2.5 114.44-2.5 114.44 0 96.39 0ZM137.04-9.2Q137.04-5 134.74-2.25 132.44 0.5 127.79 0.5L127.79 0.5Q123.14 0.5 120.76-2.27 118.39-5.05 118.39-9.2L118.39-9.2 118.39-15.8Q118.39-20.55 120.81-23.08 123.24-25.6 127.79-25.6L127.79-25.6Q132.14-25.6 134.59-22.98 137.04-20.35 137.04-15.8L137.04-15.8 137.04-9.2ZM134.24-15.8Q134.24-19.55 132.51-21.3 130.79-23.05 127.79-23.05L127.79-23.05Q124.69-23.05 122.94-21.3 121.19-19.55 121.19-15.8L121.19-15.8 121.19-8.7Q121.19-5.7 122.96-3.85 124.74-2 127.79-2L127.79-2Q130.89-2 132.56-3.83 134.24-5.65 134.24-8.7L134.24-8.7 134.24-15.8ZM152.58 8.35Q155.88 7.1 155.88 3.15L155.88 3.15 155.88-3.05Q153.78 0.6 149.13 0.6L149.13 0.6Q144.73 0.6 142.28-1.8 139.83-4.2 139.83-8.8L139.83-8.8 139.83-16.25Q139.83-20.65 142.41-23.08 144.98-25.5 149.33-25.5L149.33-25.5Q153.98-25.5 156.08-22.15L156.08-22.15 155.88-25.05 158.68-25.05 158.68 3.2Q158.68 6.2 157.43 7.9 156.18 9.6 153.33 10.5L153.33 10.5 152.58 8.35ZM155.88-16.8Q155.88-19.9 153.88-21.43 151.88-22.95 149.13-22.95L149.13-22.95Q146.48-22.95 144.56-21.33 142.63-19.7 142.63-16L142.63-16 142.63-8.35Q142.63-5.2 144.41-3.6 146.18-2 149.13-2L149.13-2Q151.93-2 153.91-3.73 155.88-5.45 155.88-8.65L155.88-8.65 155.88-16.8Z" opacity="1" transform="matrix(1,0,0,1,0,0)" fill="#6936f5" class="undefined-text-0" data-fill-palette-color="primary" id="text-0"></path></svg></g></svg></g></svg></g></svg></g><g></g></svg></g><defs></defs></svg><rect width="395.52" height="117.60775694893343" fill="none" stroke="none" visibility="hidden"></rect></g></svg></g></svg>